<svg version="1.2" xmlns="http://www.w3.org/2000/svg" viewBox="0 0 2560 1440" width="2560" height="1440">
	<title>Neues Projekt</title>
	<style>
		.s0 { fill: #ffffff } 
	</style>
	<path id="Pulse" class="s0" aria-label="Pulse"  d="m693.5 420.7h-171.5v356.3h120.1v-87.5h51.4c99.3 0 162.4-52 162.4-134.4 0-82.5-63.1-134.4-162.4-134.4zm-7.6 176.1h-43.8v-83.5h43.8c33.1 0 48.9 15.8 48.9 41.8 0 25.9-15.8 41.7-48.9 41.7zm410.3-98.2v130.8c0 41.2-19.4 56-39.2 56-22.4 0-36.2-13.3-36.2-53v-133.8h-115v153.7c0 90.6 50.4 129.8 117.1 129.8 30 0 58-10.2 78.9-31.6v26.5h109.4v-278.4zm176.1 278.4h115v-377.7h-115zm285.1 5.1c96.7 0 144-43.8 144-94.2 0-111.4-159.8-73.8-159.8-102.8 0-6.6 8.1-13.2 37.6-13.2 23.5 0 52 4.6 80.5 20.4l31.5-75.9c-29.5-15.3-72.8-22.9-113.5-22.9-93.6 0-142.5 42.8-142.5 95.2 0 111.5 160.3 73.3 160.3 101.8 0 8.1-7.6 13.2-35.6 13.2-33.1 0-70.8-9.1-97.2-24.9l-31.6 75.8c28.5 16.3 78.4 27.5 126.3 27.5zm485-144.5c0-94.2-70.7-144.1-153.2-144.1-90.1 0-157.8 59.6-157.8 144.1 0 82.9 66.2 144.5 168.5 144.5 55.5 0 94.7-15.3 121.7-44.8l-60.1-60.6c-18.3 13.8-32.6 20.4-58 20.4-28.5 0-47.9-11.2-56-32.6h193.4c0.5-8.1 1.5-18.8 1.5-26.9zm-152.2-65.7c23.5 0 40.3 13.7 44.8 37.2h-89.6c4.6-23.5 20.9-37.2 44.8-37.2z"/>
	<path id="Check" class="s0" aria-label="Check"  d="m662.5 1145.5c64.3 0 114.9-23.4 147.3-65.7l-69.9-62.3c-19.2 24.4-42.2 38.4-71.8 38.4-45.9 0-76.9-31.9-76.9-82 0-50.2 31-82.1 76.9-82.1 29.6 0 52.6 14 71.8 38.4l69.9-62.3c-32.4-42.3-83-65.7-147.3-65.7-105.5 0-182.9 70.8-182.9 171.7 0 100.8 77.4 171.6 182.9 171.6zm354.1-268.7c-27.7 0-52.5 8.4-72.2 25.3v-112.1h-106v348h106v-120.5c0-38 18.3-51.6 39.8-51.6 19.3 0 31.5 12.2 31.5 44.1v128h106v-146.3c0-80.7-46-114.9-105.1-114.9zm428.7 132.7c0-86.8-65.2-132.7-141.2-132.7-83 0-145.4 54.8-145.4 132.7 0 76.4 61 133.2 155.3 133.2 51.1 0 87.2-14.1 112-41.3l-55.3-55.8c-16.9 12.7-30 18.8-53.5 18.8-26.2 0-44.1-10.4-51.6-30h178.3c0.4-7.6 1.4-17.4 1.4-24.9zm-140.3-60.5c21.6 0 37.1 12.7 41.3 34.2h-82.5c4.2-21.5 19.2-34.2 41.2-34.2zm311.5 193.7c62.3 0 109.2-28.6 126.1-76l-82.1-40.3c-10.7 23.9-26.2 33.7-44.5 33.7-23.9 0-43.6-16.8-43.6-50.6 0-33.3 19.7-50.2 43.6-50.2 18.3 0 33.8 9.9 44.5 33.8l82.1-40.4c-16.9-47.3-63.8-75.9-126.1-75.9-88.7 0-151.5 54.8-151.5 132.7 0 78.3 62.8 133.2 151.5 133.2zm335.8-4.7h128l-114.4-145.4 106-111.1h-125.3l-73.6 74.5v-166h-106v348h106v-60.5l16.9-18.3z"/>
</svg>